# xmcd
#
# Track frame offsets: 
#        150
#        12605
#        25043
#        37379
#        49636
#        51868
#        53453
#        55502
#        56709
#        58952
#        77979
#        97062
#        115910
#        136399
#        156790
#        173213
#        191248
#        209503
#        228291
#        232198
#        245624
#        258602
#        271635
#        284730
#        297222
#        310077
#        325539
#        330534
#        344574
#
# Disc length: 4795 seconds
#
# Revision: 0
# Processed by: cddbd v1.5.2PL0 Copyright (c) Steve Scherf et al.
# Submitted via: ExactAudioCopy v0.95b3
#
DISCID=bc12b91d
DTITLE=Elvis Presley  - American Sound - Disc 02 - PC 82  FLAC
DYEAR=1900
DGENRE=
TTITLE0=Take 15 - master (+vocal repair Jan 21st\\22nd - guitar Jan 23r
TTITLE0=d)
TTITLE1=+backing vocals Jan 24th - Suspicious Minds
TTITLE2=Quad remix - The Other Side Of Memphis
TTITLE3=1987 remix - The Memphis Record
TTITLE4=You'll Think of Me - Take 1- false start
TTITLE5=You'll Think of Me - Take 2- false start
TTITLE6=You'll Think of Me - Take 3- false start
TTITLE7=You'll Think of Me - Take 4- false start
TTITLE8=You'll Think of Me - Take 5- false start
TTITLE9=You'll Think of Me - Take 6 - complete
TTITLE10=You'll Think of Me - Take 7 - complete
TTITLE11=You'll Think of Me - Take 8 - complete
TTITLE12=You'll Think of Me - complete
TTITLE13=You'll Think of Me - complete
TTITLE14=You'll Think of Me - master (+lead vocal replaced Jan 21st\\2
TTITLE14=2nd)
TTITLE15=You'll Think of Me +strings May 5th - brass May 6th
TTITLE16=You'll Think of Me - Mono remix
TTITLE17=You'll Think of Me - 1987 remix
TTITLE18=I'm Moving On - Take 1 - false start
TTITLE19=I'm Moving On - Take 2 - master
TTITLE20=I'm Moving On  +band and brass Jan 19th - backing vocals Jan 24t
TTITLE20=h
TTITLE21=I'm Moving On - Alt. vocal and mix
TTITLE22=I'm Moving On - Quad remix
TTITLE23=I'm Moving On - 1980 remix
TTITLE24=I'm Moving On - 1987 remix
TTITLE25=A Little Bit Of Green - Take 1 - complete
TTITLE26=A Little Bit Of Green - Take 2 - false start and breakdown
TTITLE27=A Little Bit Of Green - Take 3 - master
TTITLE28=A Little Bit Of Green  +lead vocal replaced Sept 25th\\26th (
TTITLE28=or Feb 22nd
EXTD=
EXTT0=
EXTT1=
EXTT2=
EXTT3=
EXTT4=
EXTT5=
EXTT6=
EXTT7=
EXTT8=
EXTT9=
EXTT10=
EXTT11=
EXTT12=
EXTT13=
EXTT14=
EXTT15=
EXTT16=
EXTT17=
EXTT18=
EXTT19=
EXTT20=
EXTT21=
EXTT22=
EXTT23=
EXTT24=
EXTT25=
EXTT26=
EXTT27=
EXTT28=
PLAYORDER=
